<?xml version="1.0" encoding="UTF-8"?><svg id="Layer_2" xmlns="http://www.w3.org/2000/svg" xmlns:xlink="http://www.w3.org/1999/xlink" viewBox="0 0 118 117"><defs><style>.cls-1{fill:url(#Nepojmenovaný_přechod_11);filter:url(#drop-shadow-1);}.cls-2{fill:#fff;}</style><linearGradient id="Nepojmenovaný_přechod_11" x1="8.36" y1="57.55" x2="107.82" y2="57.55" gradientUnits="userSpaceOnUse"><stop offset="0" stop-color="#9b3a3e"/><stop offset="1" stop-color="#b94e42"/></linearGradient><filter id="drop-shadow-1" filterUnits="userSpaceOnUse"><feOffset dx="1" dy="1"/><feGaussianBlur result="blur" stdDeviation="3"/><feFlood flood-color="#000" flood-opacity=".2"/><feComposite in2="blur" operator="in"/><feComposite in="SourceGraphic"/></filter></defs><g id="Vrstva_1"><path class="cls-1" d="M10.27,70.44c-3.68-12.22-2.6-30.53,8-39,11.3-9.03,22.9,1.53,44-7,16.88-6.82,20.37-18,29-16,12.14,2.81,15.64,27.33,16,30,.31,2.35,6.02,50.71-28,65-27.72,11.64-61.44-7.9-69-33Z"/><g><path class="cls-2" d="M57.78,63.89c1.05-2.06,1.96-3.97,2.98-5.82,4.38-7.97,10.2-14.7,17.49-20.14,1-.75,2.1-1.44,3.25-1.89,2.31-.92,4.09,.18,4.43,2.64,.31,2.23-.52,4.15-2.08,5.67-1.55,1.51-3.24,2.89-4.91,4.29-7.75,6.52-13.36,14.58-17.15,23.94-.23,.56-.44,1.14-.71,1.68-1.1,2.18-3.34,2.43-4.8,.45-1.68-2.27-3.25-4.63-4.87-6.95-1.22-1.75-2.51-3.45-3.64-5.25-1.03-1.63-1.5-3.41-.86-5.36,.65-1.99,2.74-3.29,4.52-1.03,1.83,2.32,3.71,4.6,5.58,6.9,.19,.23,.4,.45,.78,.87Z"/><path class="cls-2" d="M59.6,39.31c1.76,.27,3.53,.47,5.27,.82,1.23,.24,1.84,1.09,1.52,2-.38,1.1-1.22,1.33-2.31,1.08-10.42-2.42-20.13,3.42-23.71,12.49-5.63,14.27,6.4,29.67,21.58,27.6,12.63-1.72,20.55-13.98,16.92-26.19-.1-.33-.21-.66-.3-1-.28-.99,.02-1.76,1.01-2.08,.99-.32,1.77,.13,2.04,1.1,.47,1.67,.98,3.35,1.2,5.07,1.63,12.7-7.43,24.56-19.99,26.25-13.04,1.76-24.84-6.93-26.83-19.73-2.23-14.41,9.04-27.45,23.6-27.4Z"/></g></g></svg>