<?xml version="1.0" encoding="UTF-8"?><svg id="b" xmlns="http://www.w3.org/2000/svg" xmlns:xlink="http://www.w3.org/1999/xlink" viewBox="0 0 72 72"><defs><style>.h{fill:url(#g);}.i{fill:url(#f);}.j{fill:url(#d);}.k{fill:url(#e);}.l{fill:#fff;}.m{fill:none;stroke:#7ca892;stroke-miterlimit:10;}</style><linearGradient id="d" x1="42.67" y1="35.31" x2="54.47" y2="35.31" gradientUnits="userSpaceOnUse"><stop offset="0" stop-color="#7ca892"/><stop offset="1" stop-color="#a8dfeb"/></linearGradient><linearGradient id="e" x1="18.39" y1="43.65" x2="54.39" y2="43.65" xlink:href="#d"/><linearGradient id="f" x1="18.31" y1="35.32" x2="30.1" y2="35.32" xlink:href="#d"/><linearGradient id="g" x1="20.06" y1="30.89" x2="52.74" y2="30.89" xlink:href="#d"/></defs><g id="c"><path class="l" d="M36,0C16.12,0,0,16.12,0,36s16.12,36,36,36,36-16.12,36-36S55.88,0,36,0ZM18.31,25.72c3.96,3.57,7.86,7.11,11.79,10.66-.92,.67-1.84,1.34-2.76,1.99-3.01,2.19-6,4.35-9.03,6.54V25.72Zm32.43-.04c-4.26,3.84-8.51,7.69-12.77,11.53-1.01,.92-2.11,.96-3.09,.07-4.87-4.41-9.76-8.82-14.63-13.24-.05-.04-.09-.09-.19-.19H52.74c-.72,.65-1.37,1.23-2,1.83Zm3.73,.03v19.2c-3.03-2.18-6.03-4.35-9.04-6.53-.92-.66-1.84-1.33-2.76-2,3.93-3.55,7.84-7.08,11.8-10.67ZM18.52,48.5c-.17-.26-.21-.45,.1-.66,4.36-3.14,8.74-6.3,13.09-9.46,.02-.02,.03-.03,.06-.05,.23-.16,.36-.12,.55,.05,.62,.53,1.21,1.16,1.91,1.55,1.88,1.07,3.65,.74,5.28-.68,.32-.29,.64-.57,.96-.87,0-.01,.01-.02,.02-.03,.17-.16,.28-.18,.49-.04,.02,.02,.06,.05,.09,.07,4.37,3.16,8.73,6.33,13.12,9.48,.24,.17,.24,.35,.12,.57-.21,.37-.51,.59-.91,.64-.18,.01-.34,.01-.52,.01H19.74c-.5,0-.93-.11-1.22-.58Z"/><path class="m" d="M56.88,25.12c-.02-1.55-.67-2.7-1.91-3.47-.64-.39-1.34-.48-2.05-.48-3.35,0-6.7,0-10.04,0-7.68,0-15.35,0-23.01,0-1.32,0-2.48,.41-3.24,1.62-.33,.52-.5,1.17-.74,1.75v23.84c.11,.36,.2,.75,.36,1.1,.74,1.59,1.97,2.26,3.57,2.26,11.04,0,22.09,0,33.15-.01,.37,0,.75-.02,1.09-.12,.62-.16,1.13-.44,1.55-.82,.81-.73,1.27-1.82,1.27-3.13V30.34c0-1.74,.02-3.48,0-5.22Zm-4.14-1.27c-.72,.65-1.37,1.23-2,1.83-4.26,3.84-8.51,7.69-12.77,11.53-1.01,.92-2.11,.96-3.09,.07-4.87-4.41-9.76-8.82-14.63-13.24-.05-.04-.09-.09-.19-.19H52.74Zm-34.43,1.87c3.96,3.57,7.86,7.11,11.79,10.66-.92,.67-1.84,1.34-2.76,1.99-3.01,2.19-6,4.35-9.03,6.54V25.72Zm36,22.71c-.21,.37-.51,.59-.91,.64-.18,.01-.34,.01-.52,.01H19.74c-.5,0-.93-.11-1.22-.58-.17-.26-.21-.45,.1-.66,4.36-3.14,8.74-6.3,13.09-9.46,.02-.02,.03-.03,.06-.05,.23-.16,.36-.12,.55,.05,.62,.53,1.21,1.16,1.91,1.55,1.88,1.07,3.65,.74,5.28-.68,.32-.29,.64-.57,.96-.87,0-.01,.01-.02,.02-.03,.17-.16,.28-.18,.49-.04,.02,.02,.06,.05,.09,.07,4.37,3.16,8.73,6.33,13.12,9.48,.24,.17,.24,.35,.12,.57Zm.16-3.52c-3.03-2.18-6.03-4.35-9.04-6.53-.92-.66-1.84-1.33-2.76-2,3.93-3.55,7.84-7.08,11.8-10.67v19.2Z"/><path class="j" d="M54.47,25.71v19.2c-3.03-2.18-6.03-4.35-9.04-6.53-.92-.66-1.84-1.33-2.76-2,3.93-3.55,7.84-7.08,11.8-10.67Z"/><path class="k" d="M54.31,48.43c-.21,.37-.51,.59-.91,.64-.18,.01-.34,.01-.52,.01H19.74c-.5,0-.93-.11-1.22-.58-.17-.26-.21-.45,.1-.66,4.36-3.14,8.74-6.3,13.09-9.46,.02-.02,.03-.03,.06-.05,.23-.16,.36-.12,.55,.05,.62,.53,1.21,1.16,1.91,1.55,1.88,1.07,3.65,.74,5.28-.68,.32-.29,.64-.57,.96-.87,0-.01,.01-.02,.02-.03,.17-.16,.28-.18,.49-.04,.02,.02,.06,.05,.09,.07,4.37,3.16,8.73,6.33,13.12,9.48,.24,.17,.24,.35,.12,.57Z"/><path class="i" d="M30.1,36.38c-.92,.67-1.84,1.34-2.76,1.99-3.01,2.19-6,4.35-9.03,6.54V25.72c3.96,3.57,7.86,7.11,11.79,10.66Z"/><path class="h" d="M52.74,23.85c-.72,.65-1.37,1.23-2,1.83-4.26,3.84-8.51,7.69-12.77,11.53-1.01,.92-2.11,.96-3.09,.07-4.87-4.41-9.76-8.82-14.63-13.24-.05-.04-.09-.09-.19-.19H52.74Z"/></g></svg>