<?xml version="1.0" encoding="UTF-8"?><svg id="b" xmlns="http://www.w3.org/2000/svg" xmlns:xlink="http://www.w3.org/1999/xlink" viewBox="0 0 72 72"><defs><style>.f{fill:#fff;}.g{fill:#b94e42;}.h{filter:url(#d);}</style><filter id="d" filterUnits="userSpaceOnUse"><feOffset dx="0" dy="2"/><feGaussianBlur result="e" stdDeviation="2"/><feFlood flood-color="#4e6157" flood-opacity=".32"/><feComposite in2="e" operator="in"/><feComposite in="SourceGraphic"/></filter></defs><g id="c"><circle class="g" cx="36" cy="36" r="36"/><g class="h"><path class="f" d="M54.97,21.65c-.64-.39-1.34-.48-2.05-.48-3.34,0-6.7,0-10.04,0-7.68,0-15.34,0-23.01,0-1.31,0-2.47,.41-3.24,1.62-.33,.52-.5,1.17-.74,1.75v23.84c.11,.36,.2,.76,.36,1.1,.74,1.6,1.98,2.27,3.57,2.27,11.05,0,22.09,0,33.15,0,.37,0,.75-.02,1.1-.12,.61-.16,1.12-.44,1.54-.82,.82-.73,1.28-1.82,1.28-3.13V30.34c0-1.74,.01-3.48,0-5.22-.03-1.55-.68-2.71-1.91-3.47Zm-2.23,2.2c-.71,.65-1.36,1.23-2,1.83-4.26,3.84-8.51,7.69-12.77,11.54-1.01,.92-2.1,.96-3.09,.07-4.87-4.41-9.76-8.82-14.63-13.24-.05-.04-.09-.09-.19-.19H52.74Zm-34.43,1.87c3.95,3.57,7.86,7.1,11.79,10.66-.92,.67-1.84,1.34-2.75,1.99-3.01,2.19-6.01,4.35-9.03,6.54V25.73Zm35.99,22.7c-.2,.37-.51,.59-.91,.64-.18,.02-.34,0-.52,0h-16.49c-5.55,0-11.1,0-16.65,0-.5,0-.93-.11-1.22-.58-.17-.26-.2-.45,.1-.66,4.36-3.14,8.74-6.3,13.09-9.46,.03-.02,.04-.03,.06-.05,.23-.16,.36-.12,.55,.05,.62,.54,1.21,1.16,1.91,1.55,1.87,1.07,3.65,.75,5.28-.68,.32-.29,.64-.56,.96-.87,0,0,.01-.02,.03-.03,.17-.16,.28-.18,.48-.04,.03,.02,.06,.05,.09,.07,4.37,3.16,8.74,6.33,13.13,9.48,.24,.17,.24,.34,.11,.56Zm.17-3.52c-3.04-2.18-6.03-4.35-9.04-6.53-.92-.66-1.84-1.33-2.75-2,3.93-3.56,7.83-7.08,11.8-10.67v19.19Z"/></g></g></svg>