<?xml version="1.0" encoding="UTF-8"?><svg id="b" xmlns="http://www.w3.org/2000/svg" xmlns:xlink="http://www.w3.org/1999/xlink" viewBox="0 0 72 72"><defs><style>.j{fill:#fff;}.k{fill:url(#d);filter:url(#e);}.l{fill:url(#g);filter:url(#h);}</style><linearGradient id="d" x1="17.38" y1="35.31" x2="56" y2="35.31" gradientUnits="userSpaceOnUse"><stop offset="0" stop-color="#7ca892"/><stop offset="1" stop-color="#a8dfeb"/></linearGradient><filter id="e" filterUnits="userSpaceOnUse"><feOffset dx="0" dy="2"/><feGaussianBlur result="f" stdDeviation="2"/><feFlood flood-color="#4e6157" flood-opacity=".32"/><feComposite in2="f" operator="in"/><feComposite in="SourceGraphic"/></filter><linearGradient id="g" x1="19.68" y1="35.31" x2="53.7" y2="35.31" xlink:href="#d"/><filter id="h" filterUnits="userSpaceOnUse"><feOffset dx="0" dy="2"/><feGaussianBlur result="i" stdDeviation="2"/><feFlood flood-color="#4e6157" flood-opacity=".32"/><feComposite in2="i" operator="in"/><feComposite in="SourceGraphic"/></filter></defs><g id="c"><path class="j" d="M36,0C16.11,0,0,16.12,0,36s16.11,36,36,36,36-16.12,36-36S55.88,0,36,0Zm20,49.84c0,2.7-2.07,4.77-4.77,4.77h-8.47c-.89,0-1.32-.43-1.32-1.32,0-2.02,0-4.04,.01-6.05,0-2.46,0-4.91-.01-7.35-.03-.93,.56-1.42,1.38-1.4,1.14,.02,2.27,.02,3.43,.02h.39v-3.23h-.43c-1.13,0-2.28,0-3.42,.03-.92,0-1.38-.62-1.35-1.36,.02-1.46,0-2.91,0-4.35,0-.84,.54-1.36,1.35-1.38h3.87v-2.98c0-.06-.02-.13-.02-.23-.11-.01-.18-.01-.28-.01-1.18,0-2.35-.03-3.54,0-.34,0-.68,.01-1,.11-2.17,.48-3.6,2.24-3.63,4.48,0,1.43-.02,2.86,.03,4.29,0,.88-.48,1.43-1.42,1.4-1.13-.02-2.27,0-3.38,0-.14,0-.27,.03-.41,.03v3.2c1.31,0,2.59-.02,3.88,0,.85,0,1.3,.45,1.3,1.29v13.54c0,.84-.43,1.27-1.25,1.27-2.11,0-4.23,0-6.34,.01-2.84,0-5.68,0-8.52-.01-1.76,0-3.13-.77-4.02-2.29-.32-.54-.45-1.18-.68-1.77V20.08c.03-.07,.06-.1,.06-.18,.26-1.43,1.03-2.54,2.3-3.26,.53-.28,1.14-.41,1.7-.64h30.5s.06,.07,.1,.07c2.41,.45,3.96,2.31,3.96,4.75v29.02Z"/><path class="k" d="M52.04,16.07s-.07-.05-.1-.07H21.44c-.56,.23-1.17,.36-1.7,.64-1.27,.72-2.04,1.83-2.3,3.26,0,.08-.03,.11-.06,.18v30.47c.23,.59,.36,1.23,.68,1.77,.89,1.52,2.26,2.29,4.02,2.29,2.84,.01,5.68,.01,8.52,.01,2.11-.01,4.23-.01,6.34-.01,.82,0,1.25-.43,1.25-1.27v-13.54c0-.84-.45-1.29-1.3-1.29-1.29-.02-2.57,0-3.88,0v-3.2c.14,0,.27-.03,.41-.03,1.11,0,2.25-.02,3.38,0,.94,.03,1.43-.52,1.42-1.4-.05-1.43-.03-2.86-.03-4.29,.03-2.24,1.46-4,3.63-4.48,.32-.1,.66-.11,1-.11,1.19-.03,2.36,0,3.54,0,.1,0,.17,0,.28,.01,0,.1,.02,.17,.02,.23v2.98h-3.87c-.81,.02-1.35,.54-1.35,1.38,0,1.44,.02,2.89,0,4.35-.03,.74,.43,1.36,1.35,1.36,1.14-.03,2.29-.03,3.42-.03h.43v3.23h-.39c-1.16,0-2.29,0-3.43-.02-.82-.02-1.41,.47-1.38,1.4,.01,2.44,.01,4.89,.01,7.35-.01,2.01-.01,4.03-.01,6.05,0,.89,.43,1.32,1.32,1.32h8.47c2.7,0,4.77-2.07,4.77-4.77V20.82c0-2.44-1.55-4.3-3.96-4.75Zm1.66,33.57c0,1.36-.64,2.29-1.81,2.6-.25,.08-.53,.1-.8,.1h-7c-.23,0-.38-.02-.38-.31,.01-1.6,.01-3.2,.01-4.79,0-2.08,0-4.15,0-6.23,0-.05,0-.09,.02-.2h3.75c1.05,0,1.48-.42,1.48-1.46v-4.99c0-.94-.46-1.37-1.37-1.37h-3.86v-2.45c.14,0,.28-.03,.39-.03,1.15,0,2.29,.03,3.45,0,.96,0,1.39-.43,1.39-1.4v-5.05c0-.91-.43-1.36-1.35-1.36-1.7,0-3.4,0-5.1,.02-3.09,.04-5.79,2.29-6.43,5.27-.14,.56-.17,1.16-.18,1.75-.02,.93,0,1.87,0,2.79v.46h-.46c-1.18,0-2.36-.03-3.54,0-.77,0-1.25,.48-1.25,1.22-.02,1.78-.02,3.55,0,5.32,0,.8,.48,1.28,1.27,1.28,1.16,0,2.32,0,3.5,0h.48v.42c0,2,0,4,0,6.01,0,1.54,0,3.11,0,4.67,0,.33-.09,.43-.43,.43h-13.13c-1.37,0-2.27-.64-2.6-1.79-.06-.3-.08-.61-.08-.91V21c0-1.37,.61-2.27,1.79-2.6,.28-.08,.59-.11,.89-.11h28.66c1.35,0,2.27,.64,2.6,1.79,.06,.3,.08,.59,.08,.89v28.67Z"/><path class="l" d="M53.7,20.97v28.67c0,1.36-.64,2.29-1.81,2.6-.25,.08-.53,.1-.8,.1h-7c-.23,0-.38-.02-.38-.31,.01-1.6,.01-3.2,.01-4.79,0-2.08,0-4.15,0-6.23,0-.05,0-.09,.02-.2h3.75c1.05,0,1.48-.42,1.48-1.46v-4.99c0-.94-.46-1.37-1.37-1.37h-3.86v-2.45c.14,0,.28-.03,.39-.03,1.15,0,2.29,.03,3.45,0,.96,0,1.39-.43,1.39-1.4v-5.05c0-.91-.43-1.36-1.35-1.36-1.7,0-3.4,0-5.1,.02-3.09,.04-5.79,2.29-6.43,5.27-.14,.56-.17,1.16-.18,1.75-.02,.93,0,1.87,0,2.79v.46h-.46c-1.18,0-2.36-.03-3.54,0-.77,0-1.25,.48-1.25,1.22-.02,1.78-.02,3.55,0,5.32,0,.8,.48,1.28,1.27,1.28,1.16,0,2.32,0,3.5,0h.48v.42c0,2,0,4,0,6.01,0,1.54,0,3.11,0,4.67,0,.33-.09,.43-.43,.43h-13.13c-1.37,0-2.27-.64-2.6-1.79-.06-.3-.08-.61-.08-.91V21c0-1.37,.61-2.27,1.79-2.6,.28-.08,.59-.11,.89-.11h28.66c1.35,0,2.27,.64,2.6,1.79,.06,.3,.08,.59,.08,.89Z"/></g></svg>