<?xml version="1.0" encoding="UTF-8"?><svg id="b" xmlns="http://www.w3.org/2000/svg" xmlns:xlink="http://www.w3.org/1999/xlink" viewBox="0 0 72 72"><defs><style>.f{fill:#b94e42;}.g{fill:#fff;filter:url(#d);}</style><filter id="d" filterUnits="userSpaceOnUse"><feOffset dx="0" dy="2"/><feGaussianBlur result="e" stdDeviation="2"/><feFlood flood-color="#4e6157" flood-opacity=".32"/><feComposite in2="e" operator="in"/><feComposite in="SourceGraphic"/></filter></defs><g id="c"><circle class="f" cx="36" cy="36" r="36"/><path class="g" d="M44.14,30.51c1.15,0,2.29,.02,3.45,0,.96,0,1.39-.43,1.39-1.41v-5.05c0-.91-.43-1.36-1.35-1.36-1.71,0-3.4,0-5.11,.01-3.09,.05-5.79,2.29-6.43,5.27-.14,.56-.17,1.17-.18,1.75-.02,.93,0,1.86,0,2.79v.46h-.46c-1.19,0-2.37-.02-3.54,0-.77,0-1.25,.48-1.25,1.23-.02,1.78-.02,3.54,0,5.32,0,.79,.48,1.27,1.27,1.27,1.15,.01,2.32,0,3.5,0h.48v.42c0,2.01-.01,4-.01,6.01h2.28v-7.44c0-.84-.46-1.29-1.3-1.29-1.3-.02-2.57,0-3.88,0v-3.21c.13,0,.26-.02,.41-.02,1.11,0,2.25-.02,3.38,0,.94,.02,1.43-.52,1.42-1.41-.05-1.43-.02-2.86-.02-4.29,.02-2.23,1.45-4,3.63-4.48,.32-.1,.66-.11,1-.11,1.19-.02,2.37,0,3.54,0,.1,0,.17,0,.28,.01,0,.1,.02,.17,.02,.23v2.98h-3.87c-.82,.02-1.36,.54-1.36,1.38,0,1.44,.02,2.9,0,4.35-.02,.74,.43,1.36,1.36,1.36,1.14-.02,2.28-.02,3.41-.02h.43v3.23h-.38c-1.16,0-2.29,0-3.44-.02-.82-.02-1.41,.47-1.38,1.41,.01,2.44,.01,4.89,.01,7.34h2.27c.01-2.08,.01-4.14,.01-6.22,0-.05,0-.1,.02-.2h3.75c1.05,0,1.48-.42,1.48-1.45v-5c0-.94-.46-1.37-1.37-1.37h-3.86v-2.45c.13,0,.28-.02,.38-.02Zm7.9-14.44s-.07-.05-.11-.07H21.45c-.56,.23-1.18,.36-1.71,.64-1.27,.72-2.04,1.84-2.29,3.27,0,.07-.04,.11-.06,.18v30.47c.23,.59,.36,1.23,.67,1.77,.89,1.53,2.26,2.29,4.02,2.29,2.84,.01,5.68,.01,8.52,.01,2.11-.01,4.23-.01,6.34-.01,.82,0,1.25-.43,1.25-1.27v-13.54c0-.84-.46-1.29-1.3-1.29-1.3-.02-2.57,0-3.88,0v-3.21c.13,0,.26-.02,.41-.02,1.11,0,2.25-.02,3.38,0,.94,.02,1.43-.52,1.42-1.41-.05-1.43-.02-2.86-.02-4.29,.02-2.23,1.45-4,3.63-4.48,.32-.1,.66-.11,1-.11,1.19-.02,2.37,0,3.54,0,.1,0,.17,0,.28,.01,0,.1,.02,.17,.02,.23v2.98h-3.87c-.82,.02-1.36,.54-1.36,1.38,0,1.44,.02,2.9,0,4.35-.02,.74,.43,1.36,1.36,1.36,1.14-.02,2.28-.02,3.41-.02h.43v3.23h-.38c-1.16,0-2.29,0-3.44-.02-.82-.02-1.41,.47-1.38,1.41,.01,2.44,.01,4.89,.01,7.34-.01,2.02-.01,4.04-.01,6.05,0,.89,.43,1.32,1.32,1.32h8.47c2.7,0,4.77-2.07,4.77-4.77V20.82c0-2.44-1.55-4.3-3.95-4.75Zm1.66,33.57c0,1.36-.64,2.29-1.81,2.61-.25,.07-.53,.1-.79,.1h-7c-.23,0-.38-.02-.38-.31,.01-1.6,.01-3.2,.01-4.79,.01-2.08,.01-4.14,.01-6.22,0-.05,0-.1,.02-.2h3.75c1.05,0,1.48-.42,1.48-1.45v-5c0-.94-.46-1.37-1.37-1.37h-3.86v-2.45c.13,0,.28-.02,.38-.02,1.15,0,2.29,.02,3.45,0,.96,0,1.39-.43,1.39-1.41v-5.05c0-.91-.43-1.36-1.35-1.36-1.71,0-3.4,0-5.11,.01-3.09,.05-5.79,2.29-6.43,5.27-.14,.56-.17,1.17-.18,1.75-.02,.93,0,1.86,0,2.79v.46h-.46c-1.19,0-2.37-.02-3.54,0-.77,0-1.25,.48-1.25,1.23-.02,1.78-.02,3.54,0,5.32,0,.79,.48,1.27,1.27,1.27,1.15,.01,2.32,0,3.5,0h.48v.42c0,2.01-.01,4-.01,6.01,0,1.55,0,3.11,.01,4.67,0,.34-.1,.43-.43,.43h-13.13c-1.37,0-2.27-.64-2.59-1.79-.06-.3-.08-.61-.08-.91V21c0-1.37,.61-2.27,1.79-2.59,.28-.08,.59-.11,.89-.11h28.66c1.35,0,2.27,.64,2.59,1.79,.06,.3,.08,.59,.08,.89v28.66Z"/></g></svg>