<?xml version="1.0" encoding="UTF-8"?><svg id="Layer_2" xmlns="http://www.w3.org/2000/svg" viewBox="0 0 271.95 273.86"><defs><style>.cls-1,.cls-2{fill:#7ca892;}.cls-3{fill:none;stroke:#183334;stroke-linecap:round;stroke-linejoin:round;stroke-width:16px;}.cls-2{stroke:#7ca892;stroke-miterlimit:10;stroke-width:14px;}</style></defs><g id="Vrstva_1"><g><circle class="cls-2" cx="93.82" cy="93.82" r="86.82"/><path class="cls-1" d="M187.81,156.24c-10.52,11-21.05,22-31.57,33,26.08,26.08,52.16,52.16,78.24,78.24,8.36,8.36,21.87,8.52,30.42,.35,.11-.1,.21-.2,.32-.3,8.74-8.35,9.01-22.22,.59-30.9-26-26.8-52-53.6-78-80.4Z"/></g><g><polyline class="cls-3" points="105 244.86 105 180.86 168 180.86 168 244.86"/><g><path class="cls-3" d="M105,244.86H29V98.86c36.33-22.33,72.67-44.67,109-67"/><path class="cls-3" d="M138,31.86c36.33,22.33,72.67,44.67,109,67V244.86h-79"/></g></g></g></svg>