<?xml version="1.0" encoding="UTF-8"?><svg id="b" xmlns="http://www.w3.org/2000/svg" viewBox="0 0 33.08 33.12"><defs><style>.d,.e{fill:#7ca892;}.e{stroke:#7ca892;stroke-miterlimit:10;}.e,.f{stroke-width:2px;}.f{fill:none;stroke:#fff;stroke-linecap:round;stroke-linejoin:round;}</style></defs><g id="c"><g><circle class="e" cx="11.48" cy="11.48" r="10.48"/><path class="d" d="M22.86,18.96c-1.26,1.33-2.53,2.67-3.79,4,3.16,3.13,6.33,6.27,9.49,9.4,1.01,1,2.64,1.02,3.67,.02l.04-.04c1.05-1.01,1.07-2.69,.05-3.73-3.15-3.22-6.31-6.44-9.46-9.66Z"/><g><polyline class="f" points="12.92 29.71 12.88 21.98 20.49 21.94 20.52 29.67"/><g><path class="f" d="M12.92,29.71c-3.06,.01-6.12,.03-9.17,.04-.03-5.88-.06-11.75-.09-17.63,4.37-2.72,8.75-5.44,13.12-8.15"/><path class="f" d="M16.78,3.97c4.4,2.67,8.8,5.35,13.2,8.02,.03,5.88,.06,11.75,.09,17.63-3.18,.02-6.36,.03-9.54,.05"/></g></g></g></g></svg>