<?xml version="1.0" encoding="UTF-8"?><svg id="b" xmlns="http://www.w3.org/2000/svg" xmlns:xlink="http://www.w3.org/1999/xlink" viewBox="0 0 1280.97 1034.72"><defs><style>.e{fill:url(#d);}</style><linearGradient id="d" x1="163.48" y1="-77.01" x2="1115.23" y2="1110.82" gradientUnits="userSpaceOnUse"><stop offset="0" stop-color="#7ca892"/><stop offset="1" stop-color="#a8dfeb"/></linearGradient></defs><g id="c"><path class="e" d="M1280.97,973.15l-720.06-1.44,719.56,1.47v5.24c-63.77,11.21-140.43,22.9-228.13,32.71-28.95,3.24-59.1,6.27-90.4,9.01,1.05,.14,2.08,.27,3.11,.41-18.86,1.6-38.11,3.1-57.76,4.47h-12.54c-.19,.3-.37,.59-.57,.89-135.43,9.03-288.76,12.27-455.54,4.16-40.76-1.98-80.22-4.54-118.35-7.57,.34-.1,.69-.19,1.03-.3-39.4-3.22-77.35-6.96-113.76-11.08-63.2-7.16-121.81-15.47-175.46-24.26-10.55-1.73-20.92-3.48-31.08-5.24v-11.03l10.68,.02s-.02-.02-.03-.02l-10.64-.02H.49v.02h-.49C.33,668.44,.66,366.3,.99,64.15v-10.97s.03,0,.04,0c61.99-10.74,131.2-21,207.04-29.59,72.03-8.15,150.02-14.81,233.47-18.95,235.44-11.68,443.55,.18,611.3,18.95,87.7,9.81,164.35,21.5,228.13,32.71V973.15Z"/></g></svg>