<?xml version="1.0" encoding="UTF-8"?><svg id="b" xmlns="http://www.w3.org/2000/svg" xmlns:xlink="http://www.w3.org/1999/xlink" viewBox="0 0 72 72"><defs><style>.f{fill:#fff;}.g{fill:#b94e42;}.h{filter:url(#d);}</style><filter id="d" filterUnits="userSpaceOnUse"><feOffset dx="0" dy="2"/><feGaussianBlur result="e" stdDeviation="2"/><feFlood flood-color="#4e6157" flood-opacity=".32"/><feComposite in2="e" operator="in"/><feComposite in="SourceGraphic"/></filter></defs><g id="c"><circle class="g" cx="36" cy="36" r="36"/><g class="h"><path class="f" d="M55.75,22.44c-.91-3.61-3.14-6.03-6.65-7.26-.57-.2-1.18-.27-1.76-.39-.09-.02-.17-.06-.26-.09H25.26c-.37,.07-.73,.14-1.08,.22-3.64,.9-6.08,3.11-7.33,6.63-.21,.58-.27,1.21-.41,1.8-.02,.09-.06,.17-.09,.26v21.83c.07,.37,.14,.73,.23,1.08,.89,3.64,3.11,6.08,6.62,7.33,.58,.21,1.21,.28,1.81,.42,.07,.01,.16,.05,.25,.07h21.83c.37-.07,.73-.14,1.08-.22,1.91-.47,3.48-1.3,4.74-2.51,1.13-1.06,1.99-2.45,2.6-4.12,.21-.58,.28-1.21,.42-1.8,.01-.09,.05-.17,.07-.26V23.61c-.07-.39-.15-.78-.25-1.17ZM19.76,45.44c-.04-.28-.07-.57-.07-.85-.01-6.73-.02-13.46,0-20.19,.01-3.11,2.52-5.89,5.6-6.3,.28-.04,.57-.07,.85-.07,6.76,0,13.52-.01,20.28,.01,3,.01,5.83,2.6,6.19,5.59,.02,.27,.06,.54,.06,.81,.01,6.76,.02,13.52,0,20.28-.01,3.04-2.57,5.86-5.59,6.23-.42,.06-.84,.09-1.27,.09h-9.67c-3.41,0-6.82,.01-10.23-.01-2.97-.02-5.81-2.62-6.15-5.57Z"/><path class="f" d="M36.18,44.43c-5.47,0-9.91-4.43-9.92-9.9,0-5.49,4.43-9.93,9.93-9.93,5.47,0,9.9,4.44,9.9,9.92,0,5.47-4.43,9.9-9.91,9.91Zm0-3.32c3.64,0,6.58-2.95,6.58-6.59,0-3.64-2.94-6.58-6.58-6.59-3.66,0-6.61,2.95-6.6,6.61,0,3.64,2.96,6.57,6.6,6.57Z"/><path class="f" d="M46.93,26.26c-1.37,.01-2.48-1.08-2.49-2.46-.01-1.36,1.1-2.49,2.46-2.51,1.34-.02,2.49,1.12,2.51,2.48,.02,1.35-1.1,2.48-2.48,2.49Z"/></g></g></svg>