<?xml version="1.0" encoding="UTF-8"?><svg id="b" xmlns="http://www.w3.org/2000/svg" xmlns:xlink="http://www.w3.org/1999/xlink" viewBox="0 0 72 72"><defs><style>.g{fill:url(#f);}.h{fill:url(#d);}.i{fill:url(#e);}.j{fill:#fff;}</style><linearGradient id="d" x1="16.35" y1="34.52" x2="56" y2="34.52" gradientUnits="userSpaceOnUse"><stop offset="0" stop-color="#7ca892"/><stop offset="1" stop-color="#a8dfeb"/></linearGradient><linearGradient id="e" x1="19.67" y1="34.52" x2="52.68" y2="34.52" xlink:href="#d"/><linearGradient id="f" x1="29.58" x2="42.76" xlink:href="#d"/></defs><g id="c"><path class="j" d="M36,0C16.11,0,0,16.12,0,36s16.11,36,36,36,36-16.12,36-36S55.88,0,36,0Zm16.66,44.71c0,3.04-2.57,5.86-5.59,6.23-.41,.06-.83,.08-1.26,.08h-9.67c-3.41,0-6.82,0-10.23-.01-2.97-.03-5.81-2.62-6.15-5.57-.04-.29-.08-.57-.08-.85-.01-6.74-.02-13.47,0-20.2,.02-3.11,2.53-5.89,5.6-6.3,.28-.03,.57-.07,.85-.07,6.76,0,13.52-.01,20.28,0,3,.01,5.83,2.6,6.19,5.59,.02,.27,.06,.54,.06,.81,0,6.76,.03,13.52,0,20.28Zm-5.76-23.42c-1.37,.02-2.48,1.15-2.47,2.51,.02,1.38,1.13,2.47,2.5,2.46,1.37-.02,2.49-1.14,2.47-2.49-.01-1.36-1.17-2.5-2.5-2.48Zm-10.71,3.32c-5.5-.01-9.93,4.43-9.93,9.92,0,5.48,4.44,9.9,9.92,9.9s9.9-4.43,9.9-9.91c0-5.47-4.42-9.9-9.89-9.91Zm0,16.5c-3.64,0-6.59-2.93-6.6-6.57,0-3.66,2.94-6.61,6.6-6.61s6.58,2.94,6.58,6.59-2.93,6.58-6.58,6.59Z"/><path class="h" d="M55.75,22.44c-.91-3.61-3.14-6.03-6.64-7.26-.57-.2-1.19-.27-1.76-.4-.09-.02-.18-.06-.26-.08H25.26c-.37,.07-.73,.13-1.09,.22-3.64,.9-6.07,3.11-7.33,6.63-.21,.58-.27,1.21-.41,1.8-.02,.08-.06,.17-.08,.26v21.83c.07,.36,.13,.72,.23,1.08,.89,3.64,3.12,6.08,6.62,7.33,.58,.21,1.21,.29,1.81,.42,.07,0,.16,.05,.25,.07h21.83c.37-.07,.72-.13,1.08-.22,1.91-.46,3.48-1.3,4.74-2.51,1.13-1.06,1.99-2.45,2.59-4.12,.21-.58,.29-1.21,.42-1.8,.01-.08,.05-.17,.08-.25V23.61c-.08-.4-.15-.78-.25-1.17Zm-3.09,22.27c0,3.04-2.57,5.86-5.59,6.23-.41,.06-.83,.08-1.26,.08h-9.67c-3.41,0-6.82,0-10.23-.01-2.97-.03-5.81-2.62-6.15-5.57-.04-.29-.08-.57-.08-.85-.01-6.74-.02-13.47,0-20.2,.02-3.11,2.53-5.89,5.6-6.3,.28-.03,.57-.07,.85-.07,6.76,0,13.52-.01,20.28,0,3,.01,5.83,2.6,6.19,5.59,.02,.27,.06,.54,.06,.81,0,6.76,.03,13.52,0,20.28Z"/><path class="i" d="M52.66,24.43c0-.27-.04-.54-.06-.81-.36-2.99-3.19-5.58-6.19-5.59-6.76-.02-13.52,0-20.28,0-.28,0-.57,.04-.85,.07-3.07,.41-5.58,3.19-5.6,6.3-.02,6.73-.01,13.46,0,20.2,0,.28,.04,.56,.08,.85,.34,2.95,3.18,5.54,6.15,5.57,3.41,.02,6.82,.01,10.23,.01h9.67c.43,0,.85-.02,1.26-.08,3.02-.37,5.58-3.19,5.59-6.23,.03-6.76,0-13.52,0-20.28Zm-16.48,20c-5.48,0-9.91-4.42-9.92-9.9,0-5.49,4.43-9.93,9.93-9.92,5.47,.01,9.9,4.44,9.89,9.91,0,5.48-4.43,9.91-9.9,9.91Zm10.75-18.17c-1.37,.01-2.48-1.08-2.5-2.46-.01-1.36,1.1-2.49,2.47-2.51,1.33-.02,2.49,1.12,2.5,2.48,.02,1.35-1.1,2.47-2.47,2.49Z"/><path class="g" d="M42.76,34.52c0,3.64-2.93,6.58-6.58,6.59-3.64,0-6.59-2.93-6.6-6.57,0-3.66,2.94-6.61,6.6-6.61s6.58,2.94,6.58,6.59Z"/><path class="j" d="M49.4,23.77c.02,1.35-1.1,2.47-2.47,2.49-1.37,.01-2.48-1.08-2.5-2.46-.01-1.36,1.1-2.49,2.47-2.51,1.33-.02,2.49,1.12,2.5,2.48Z"/></g></svg>