<?xml version="1.0" encoding="UTF-8"?><svg id="b" xmlns="http://www.w3.org/2000/svg" xmlns:xlink="http://www.w3.org/1999/xlink" viewBox="0 0 118 117"><defs><style>.g{fill:#fff;}.h{fill:url(#d);filter:url(#e);}</style><linearGradient id="d" x1="8.04" y1="57.28" x2="107.56" y2="57.28" gradientUnits="userSpaceOnUse"><stop offset="0" stop-color="#9b3a3e"/><stop offset="1" stop-color="#b94e42"/></linearGradient><filter id="e" filterUnits="userSpaceOnUse"><feOffset dx="1" dy="1"/><feGaussianBlur result="f" stdDeviation="3"/><feFlood flood-color="#000" flood-opacity=".2"/><feComposite in2="f" operator="in"/><feComposite in="SourceGraphic"/></filter></defs><g id="c"><path class="h" d="M9.86,69.73c-3.59-12.24-2.39-30.55,8.27-38.94,11.36-8.95,22.89,1.69,44.05-6.7,16.92-6.71,20.5-17.85,29.11-15.8,12.12,2.89,15.46,27.44,15.79,30.11,.3,2.35,5.67,50.75-28.45,64.81-27.8,11.45-61.39-8.32-68.77-33.47Z"/><g><g><path class="g" d="M67.51,85.01h-11.04c0-8.69-.06-17.14,.1-25.58,.01-.8,1.35-1.59,2.12-2.33,.15-.14,.52-.04,.79-.07,8-.73,8.1-.62,8.04,7.42-.04,6.72,0,13.44,0,20.56Z"/><path class="g" d="M83.68,85.06h-10.86c0-7.55-.05-14.88,.09-22.21,.01-.68,1.27-1.35,1.96-2,.07-.07,.26-.01,.39-.03,7.86-1,8.41-.53,8.41,7.36,0,5.48,0,10.96,0,16.89Z"/><path class="g" d="M72.28,46.07c2.42-2.38,4.52-4.44,6.71-6.59-.79-1.43-1.46-2.64-2.58-4.66,4.07-.68,7.63-1.28,12.26-2.05-.57,4.44-1.04,8.12-1.61,12.62-4.17-3.46-5.81-.4-7.79,1.57-6.98,6.9-5.48,7.31-13.48,1.22-6.67-5.08-6.71-5.01-13.27,.48-2.79,2.33-5.63,4.6-8.42,6.92-1.63,1.35-3.57,2.83-5.08,.53-.57-.87,.34-3.58,1.4-4.52,5.12-4.56,10.55-8.78,15.81-13.19,1.97-1.65,3.73-1.71,5.76-.1,3.25,2.58,6.62,5.02,10.29,7.78Z"/></g><path class="g" d="M50.64,84.6h-11.08c0-5.58-.09-11.03,.11-16.47,.03-.72,1.46-1.86,2.38-2.01,7.61-1.3,8.59-.42,8.59,7.19,0,3.61,0,7.22,0,11.3Z"/></g></g></svg>