<?xml version="1.0" encoding="UTF-8"?><svg id="b" xmlns="http://www.w3.org/2000/svg" xmlns:xlink="http://www.w3.org/1999/xlink" viewBox="0 0 119 117"><defs><style>.g{fill:#fff;}.h{fill:url(#d);filter:url(#e);}</style><linearGradient id="d" x1="8.82" y1="57.39" x2="108.34" y2="57.39" gradientUnits="userSpaceOnUse"><stop offset="0" stop-color="#9b3a3e"/><stop offset="1" stop-color="#b94e42"/></linearGradient><filter id="e" filterUnits="userSpaceOnUse"><feOffset dx="1" dy="1"/><feGaussianBlur result="f" stdDeviation="3"/><feFlood flood-color="#000" flood-opacity=".2"/><feComposite in2="f" operator="in"/><feComposite in="SourceGraphic"/></filter></defs><g id="c"><path class="h" d="M10.64,69.83c-3.59-12.24-2.39-30.55,8.27-38.94,11.36-8.95,22.89,1.69,44.05-6.7,16.92-6.71,20.5-17.85,29.11-15.8,12.12,2.89,15.46,27.44,15.79,30.11,.3,2.35,5.67,50.75-28.45,64.81-27.8,11.45-61.39-8.32-68.77-33.47Z"/><g><path class="g" d="M69.5,56.27c.03,5.01-3.78,8.59-9.1,8.55-5.01-.03-8.75-3.66-8.79-8.5-.03-4.83,3.64-8.18,8.95-8.2,5.41,0,8.91,3.19,8.95,8.15Z"/><path class="g" d="M60.36,38.03c-15.18,.03-24.82,14.3-17.7,27.13,3.97,7.18,9.59,13.51,14.45,20.24,2.3,3.17,4.68,2.94,6.88,.05,4.86-6.4,9.85-12.71,14.32-19.34,8.6-12.73-2.84-28.85-17.94-28.08Zm15.13,25.02c-3.19,6.16-7.82,11.64-11.85,17.37-1.71,2.42-3.99,2.59-5.66,.22-4.53-6.41-9.75-12.59-12.9-19.63-4.25-9.45,4.44-19.74,15.61-19.78,12.03-.03,20.16,11.48,14.79,21.81Z"/></g></g></svg>