<?xml version="1.0" encoding="UTF-8"?><svg id="b" xmlns="http://www.w3.org/2000/svg" xmlns:xlink="http://www.w3.org/1999/xlink" viewBox="0 0 72 72"><defs><style>.f{fill:#fff;}.g{fill:#b94e42;}.h{filter:url(#d);}</style><filter id="d" filterUnits="userSpaceOnUse"><feOffset dx="0" dy="2"/><feGaussianBlur result="e" stdDeviation="2"/><feFlood flood-color="#4e6157" flood-opacity=".32"/><feComposite in2="e" operator="in"/><feComposite in="SourceGraphic"/></filter></defs><g id="c"><circle class="g" cx="36" cy="36" r="36"/><g class="h"><path class="f" d="M57.64,31.44c-1.23-6.5-4.81-11.27-10.7-14.24-3.68-1.86-7.61-2.49-11.7-2.09-5.65,.55-10.43,2.87-14.1,7.28-2.45,2.96-3.83,6.37-4.28,10.18-.05,.41-.1,.81-.15,1.22v2.59c.1,.77,.18,1.54,.31,2.29,.72,4.13,2.55,7.68,5.52,10.61,.12,.1,.23,.22,.35,.33,.22,.2,.33,.41,.33,.72,.01,.92,.05,1.86,.08,2.78,.05,1.47,.77,2.47,2.14,3,.05,.03,.09,.06,.13,.09h1.7c1.32-.59,2.64-1.18,3.96-1.74,.18-.08,.42-.04,.62,0,4.19,1.04,8.37,.97,12.46-.45,5.49-1.9,9.39-5.26,11.66-10.1,.67-1.38,1.18-2.9,1.55-4.52,.19-.86,.26-1.74,.38-2.63,.01-.13,.05-.26,.06-.38v-2.59c-.1-.78-.17-1.56-.32-2.35Zm-6.66,14.32c-2.54,3.1-5.86,4.96-9.75,5.77-2.94,.6-5.87,.53-8.78-.24-.86-.23-1.68-.17-2.5,.21-1.01,.47-2.04,.91-3.05,1.36-.12,.04-.22,.08-.37,.14-.03-.46-.04-.9-.05-1.32-.03-.53-.04-1.05-.04-1.56,0-1.14-.44-2.04-1.28-2.79-.32-.28-.63-.58-.91-.9-.87-.92-1.6-1.95-2.22-3.08-1.68-3.04-2.31-6.29-2.03-9.74,.27-3.33,1.4-6.32,3.47-8.95,2.54-3.18,5.83-5.15,9.79-5.97,5.1-1.05,9.93-.33,14.29,2.61,4.09,2.76,6.42,6.66,7.02,11.56,.4,3.2,.04,6.2-1.18,8.97-.59,1.37-1.4,2.68-2.42,3.93Z"/><path class="f" d="M40.59,41.05c-.53,0-1.14-.26-1.7-.7-1.36-1.07-2.73-2.13-4.1-3.19-.65-.5-1.09-.51-1.74,0-1.87,1.44-3.74,2.89-5.62,4.33-.14,.11-.28,.22-.43,.29-.37,.18-.72,.08-.99-.2-.27-.27-.35-.6-.19-.96,.06-.13,.14-.26,.22-.38,1.77-2.8,3.54-5.61,5.31-8.41,1.1-1.74,2.88-2.06,4.51-.83,1.36,1.03,2.72,2.06,4.07,3.09,.61,.47,1.07,.47,1.68,.01,1.88-1.42,3.75-2.84,5.62-4.26,.1-.07,.19-.15,.29-.22,.4-.26,.82-.23,1.14,.09,.32,.3,.39,.7,.15,1.1-.45,.75-.92,1.48-1.39,2.22-1.37,2.18-2.75,4.36-4.12,6.54-.62,.98-1.48,1.48-2.7,1.48Z"/></g></g></svg>