<?xml version="1.0" encoding="UTF-8"?><svg id="b" xmlns="http://www.w3.org/2000/svg" xmlns:xlink="http://www.w3.org/1999/xlink" viewBox="0 0 72 72"><defs><style>.e{fill:url(#d);}.f{fill:#fff;}</style><linearGradient id="d" x1="16.7" y1="35.6" x2="57.96" y2="35.6" gradientUnits="userSpaceOnUse"><stop offset="0" stop-color="#7ca892"/><stop offset="1" stop-color="#a8dfeb"/></linearGradient></defs><g id="c"><path class="f" d="M36,0C16.11,0,0,16.12,0,36s16.11,36,36,36,36-16.12,36-36S55.88,0,36,0Zm21.96,36.38c0,.13-.05,.25-.07,.38-.12,.89-.19,1.77-.38,2.63-.37,1.63-.88,3.14-1.55,4.52-2.27,4.85-6.18,8.21-11.66,10.1-4.09,1.43-8.27,1.49-12.46,.45-.19-.04-.44-.08-.62,0-1.32,.57-2.64,1.16-3.96,1.74h-1.7s-.08-.06-.13-.08c-1.37-.53-2.09-1.53-2.14-3-.03-.93-.07-1.86-.08-2.79,0-.3-.11-.51-.33-.71-.12-.12-.23-.23-.35-.34-2.97-2.93-4.8-6.48-5.52-10.61-.13-.76-.21-1.52-.31-2.29v-2.59c.05-.41,.1-.81,.15-1.22,.45-3.81,1.84-7.22,4.29-10.18,3.66-4.41,8.44-6.73,14.09-7.28,4.09-.39,8.03,.23,11.71,2.09,5.89,2.98,9.47,7.74,10.7,14.24,.15,.78,.22,1.57,.32,2.35v2.59Z"/><path class="e" d="M57.64,31.44c-1.23-6.5-4.81-11.26-10.7-14.24-3.68-1.86-7.62-2.48-11.71-2.09-5.65,.55-10.43,2.87-14.09,7.28-2.45,2.96-3.84,6.37-4.29,10.18-.05,.41-.1,.81-.15,1.22v2.59c.1,.77,.18,1.53,.31,2.29,.72,4.13,2.55,7.68,5.52,10.61,.12,.11,.23,.22,.35,.34,.22,.2,.33,.41,.33,.71,.01,.93,.05,1.86,.08,2.79,.05,1.47,.77,2.47,2.14,3,.05,.02,.09,.06,.13,.08h1.7c1.32-.58,2.64-1.17,3.96-1.74,.18-.08,.43-.04,.62,0,4.19,1.04,8.37,.98,12.46-.45,5.48-1.89,9.39-5.25,11.66-10.1,.67-1.38,1.18-2.89,1.55-4.52,.19-.86,.26-1.74,.38-2.63,.02-.13,.06-.25,.07-.38v-2.59c-.1-.78-.17-1.57-.32-2.35Zm-8.84-.64c-.45,.75-.93,1.49-1.39,2.22-1.38,2.18-2.75,4.36-4.12,6.54-.62,.98-1.48,1.48-2.71,1.49-.52,0-1.14-.26-1.7-.7-1.36-1.07-2.73-2.13-4.1-3.19-.65-.5-1.09-.51-1.74-.01-1.87,1.44-3.75,2.89-5.62,4.33-.14,.11-.28,.22-.43,.29-.38,.17-.72,.08-1-.2-.26-.27-.35-.6-.18-.96,.06-.14,.14-.26,.22-.39,1.77-2.8,3.53-5.61,5.3-8.41,1.1-1.74,2.88-2.06,4.51-.83,1.36,1.04,2.72,2.07,4.08,3.1,.61,.46,1.06,.47,1.67,0,1.88-1.42,3.75-2.84,5.62-4.26,.1-.07,.19-.15,.3-.21,.39-.26,.81-.23,1.14,.08,.32,.3,.39,.7,.15,1.1Z"/></g></svg>