<?xml version="1.0" encoding="UTF-8"?><svg id="b" xmlns="http://www.w3.org/2000/svg" xmlns:xlink="http://www.w3.org/1999/xlink" viewBox="0 0 72 72"><defs><style>.f{fill:#b94e42;}.g{fill:#fff;filter:url(#d);}</style><filter id="d" filterUnits="userSpaceOnUse"><feOffset dx="0" dy="2"/><feGaussianBlur result="e" stdDeviation="2"/><feFlood flood-color="#4e6157" flood-opacity=".32"/><feComposite in2="e" operator="in"/><feComposite in="SourceGraphic"/></filter></defs><g id="c"><circle class="f" cx="36" cy="36" r="36"/><path class="g" d="M54.32,43.07c-3.66-1.46-7.32-2.92-10.98-4.38-.86-.34-1.36-.12-1.69,.73-.6,1.48-1.2,2.96-1.77,4.44-.1,.28-.25,.36-.52,.32-.7-.15-1.42-.24-2.11-.43-4.43-1.21-7.84-5.34-8.23-9.91-.02-.27,.03-.42,.32-.52,1.48-.58,2.96-1.17,4.44-1.76,.86-.35,1.07-.85,.73-1.71-1.45-3.63-2.9-7.25-4.35-10.88-.17-.44-.41-.79-.86-.96h-1.06c-.7,.14-1.4,.24-2.08,.43-3.89,1.1-6.8,4.6-7.22,8.62-.01,.1-.05,.2-.07,.32v2.19c.07,.61,.12,1.22,.2,1.83,.66,5.17,2.64,9.77,6.03,13.73,1.72,2,3.64,3.69,5.75,5.05,.9,.6,1.85,1.12,2.84,1.59,1.78,.85,3.68,1.49,5.71,1.93,1.28,.27,2.61,.37,3.92,.56,.12,.01,.25,.03,.37,.06h2.14c.6-.11,1.21-.19,1.8-.35,4.08-1.07,7.05-4.54,7.5-8.73,.01-.09,.03-.18,.06-.28v-1.06c-.16-.4-.44-.67-.86-.82Zm-1.33,2.19c-.42,3.32-3.19,6.23-6.5,6.8-1.43,.25-2.87,.14-4.3-.03-4.41-.52-8.38-2.11-11.88-4.86-5.01-3.94-8.06-9.06-9.04-15.37-.24-1.53-.37-3.05-.21-4.6,.35-3.39,3.12-6.35,6.5-6.93,.77-.14,.78-.14,1.07,.6,1.15,2.89,2.3,5.78,3.47,8.68,.03,.09,.07,.19,.11,.32-.76,.31-1.5,.61-2.24,.9-.78,.32-1.56,.62-2.34,.93-.58,.24-.81,.59-.78,1.21,.25,5.73,2.98,9.82,8.15,12.28,1.68,.8,3.49,1.13,5.37,1.15,.55,0,.89-.24,1.12-.8l1.69-4.24c.05-.1,.08-.19,.14-.33,.14,.05,.25,.09,.36,.14,2.99,1.2,5.98,2.4,8.98,3.58,.31,.11,.36,.27,.33,.56Z"/></g></svg>