<?xml version="1.0" encoding="UTF-8"?><svg id="b" xmlns="http://www.w3.org/2000/svg" xmlns:xlink="http://www.w3.org/1999/xlink" viewBox="0 0 72 72"><defs><style>.i{fill:#fff;}.j{fill:#7ca892;filter:url(#d);}.k{fill:url(#f);filter:url(#g);}</style><filter id="d" filterUnits="userSpaceOnUse"><feOffset dx="0" dy="2"/><feGaussianBlur result="e" stdDeviation="2"/><feFlood flood-color="#4e6157" flood-opacity=".32"/><feComposite in2="e" operator="in"/><feComposite in="SourceGraphic"/></filter><linearGradient id="f" x1="20.99" y1="36.21" x2="52.99" y2="36.21" gradientUnits="userSpaceOnUse"><stop offset="0" stop-color="#7ca892"/><stop offset="1" stop-color="#a8dfeb"/></linearGradient><filter id="g" filterUnits="userSpaceOnUse"><feOffset dx="0" dy="2"/><feGaussianBlur result="h" stdDeviation="2"/><feFlood flood-color="#4e6157" flood-opacity=".32"/><feComposite in2="h" operator="in"/><feComposite in="SourceGraphic"/></filter></defs><g id="c"><path class="i" d="M36,0C16.12,0,0,16.12,0,36s16.12,36,36,36,36-16.12,36-36S55.88,0,36,0Zm-14.73,31.81c-.24-1.53-.37-3.05-.21-4.6,.35-3.39,3.11-6.35,6.49-6.93,.77-.13,.78-.13,1.08,.6,1.15,2.89,2.3,5.79,3.46,8.68,.04,.09,.07,.19,.12,.31-.76,.31-1.51,.61-2.24,.91-.78,.31-1.56,.62-2.34,.92-.58,.24-.81,.59-.78,1.21,.25,5.73,2.98,9.82,8.15,12.29,1.68,.8,3.49,1.12,5.36,1.15,.56,0,.9-.24,1.12-.8l1.7-4.24c.04-.1,.08-.19,.13-.33,.14,.05,.25,.09,.36,.14,3,1.19,5.98,2.39,8.99,3.58,.3,.11,.36,.27,.32,.56-.41,3.32-3.18,6.23-6.49,6.8-1.44,.25-2.87,.14-4.31-.03-4.4-.52-8.38-2.11-11.87-4.86-5.01-3.94-8.06-9.06-9.04-15.36Z"/><path class="j" d="M54.32,43.07c-3.66-1.46-7.32-2.91-10.98-4.38-.86-.34-1.36-.13-1.7,.73-.6,1.48-1.2,2.96-1.77,4.44-.1,.28-.25,.36-.52,.32-.7-.15-1.43-.24-2.12-.43-4.42-1.21-7.84-5.35-8.22-9.91-.02-.27,.03-.42,.32-.52,1.48-.58,2.96-1.17,4.44-1.76,.85-.35,1.07-.85,.73-1.71-1.45-3.63-2.9-7.25-4.35-10.88-.17-.44-.41-.79-.86-.96h-1.06c-.7,.14-1.4,.24-2.08,.43-3.89,1.1-6.8,4.6-7.22,8.62,0,.1-.04,.2-.07,.32v2.19c.07,.61,.13,1.22,.21,1.83,.65,5.17,2.64,9.77,6.03,13.73,1.72,2,3.64,3.69,5.75,5.05,.9,.6,1.85,1.12,2.84,1.59,1.78,.85,3.68,1.49,5.7,1.93,1.28,.27,2.61,.38,3.92,.57,.13,.01,.25,.03,.38,.05h2.13c.6-.11,1.21-.19,1.8-.35,4.08-1.07,7.05-4.54,7.5-8.73,0-.09,.03-.18,.06-.28v-1.06c-.16-.4-.44-.67-.86-.83Zm-1.34,2.19c-.41,3.32-3.18,6.23-6.49,6.8-1.44,.25-2.87,.14-4.31-.03-4.4-.52-8.38-2.11-11.87-4.86-5.01-3.94-8.06-9.06-9.04-15.36-.24-1.53-.37-3.05-.21-4.6,.35-3.39,3.11-6.35,6.49-6.93,.77-.13,.78-.13,1.08,.6,1.15,2.89,2.3,5.79,3.46,8.68,.04,.09,.07,.19,.12,.31-.76,.31-1.51,.61-2.24,.91-.78,.31-1.56,.62-2.34,.92-.58,.24-.81,.59-.78,1.21,.25,5.73,2.98,9.82,8.15,12.29,1.68,.8,3.49,1.12,5.36,1.15,.56,0,.9-.24,1.12-.8l1.7-4.24c.04-.1,.08-.19,.13-.33,.14,.05,.25,.09,.36,.14,3,1.19,5.98,2.39,8.99,3.58,.3,.11,.36,.27,.32,.56Z"/><path class="k" d="M52.98,45.26c-.41,3.32-3.18,6.23-6.49,6.8-1.44,.25-2.87,.14-4.31-.03-4.4-.52-8.38-2.11-11.87-4.86-5.01-3.94-8.06-9.06-9.04-15.36-.24-1.53-.37-3.05-.21-4.6,.35-3.39,3.11-6.35,6.49-6.93,.77-.13,.78-.13,1.08,.6,1.15,2.89,2.3,5.79,3.46,8.68,.04,.09,.07,.19,.12,.31-.76,.31-1.51,.61-2.24,.91-.78,.31-1.56,.62-2.34,.92-.58,.24-.81,.59-.78,1.21,.25,5.73,2.98,9.82,8.15,12.29,1.68,.8,3.49,1.12,5.36,1.15,.56,0,.9-.24,1.12-.8l1.7-4.24c.04-.1,.08-.19,.13-.33,.14,.05,.25,.09,.36,.14,3,1.19,5.98,2.39,8.99,3.58,.3,.11,.36,.27,.32,.56Z"/></g></svg>