<?xml version="1.0" encoding="UTF-8"?><svg id="b" xmlns="http://www.w3.org/2000/svg" xmlns:xlink="http://www.w3.org/1999/xlink" viewBox="0 0 72 72"><defs><style>.e{fill:url(#d);}.f{fill:#fff;}</style><linearGradient id="d" x1="16.9" y1="36.54" x2="60.21" y2="36.54" gradientUnits="userSpaceOnUse"><stop offset="0" stop-color="#7ca892"/><stop offset="1" stop-color="#a8dfeb"/></linearGradient></defs><g id="c"><circle class="f" cx="36" cy="36" r="36"/><path class="e" d="M18.58,20.33c5.14,5.3,10.87,8.78,18.37,8.89,.16-1.11,.25-2.06,.42-2.99,1.12-6.08,7.38-9.7,12.81-7.02,2.68,1.32,5.01,2.46,7.9,.23,.1,.25,.2,.5,.3,.75-.52,1.03-1.05,2.06-1.68,3.29h3.51c-4.28,2.56-4.23,6.15-4.9,9.69-3.16,16.64-19.61,25.73-35.29,19.72-1.07-.41-2.08-.96-3.12-1.73,3.89-.86,7.99-.92,11.25-4.16-3.15-1.2-5.95-2.47-7.26-5.82,.78-.37,1.41-.68,2.34-1.12-3.18-1.91-5.58-4.16-5.78-8.17,.87-.08,1.67-.15,2.81-.26-2.55-3.38-4.03-6.87-1.68-11.32Z"/></g></svg>